#!OML:ASF E:\motion texture\Top Level 1\Subject 1\Session 1\male.ASF
:FULLY-SPECIFIED
:DEGREES
304
root 40.0763 17.4439 5.62602 119.043 -80.8814 -109.537
lowerback -3.42467 2.53019 8.68307
upperback -3.02401 2.99572 4.31238
thorax -0.999236 1.30878 -0.308048
lowerneck -17.7326 -5.80526 -8.58825
upperneck 10.7633 -6.64066 6.01923
head 6.6587 -3.06579 2.59364
rclavicle -1.09083e-014 4.13472e-014
rhumerus 1.05447 -3.02499 -86.6595
rradius 37.9774
rwrist -32.0278
rhand 10.2598 -35.8089
rfingers 7.12502
rthumb 35.3727 -62.2771
lclavicle -1.09083e-014 4.13472e-014
lhumerus -24.3786 9.53191 81.0373
lradius 32.0372
lwrist -10.742
lhand -8.27068 28.7685
lfingers 7.12502
lthumb 17.6484 57.9876
rfemur -0.937813 2.62002 33.5507
rtibia 14.796
rfoot -16.1183 -12.6057
rtoes 5.8915
lfemur -36.421 1.27556 -6.30721
ltibia 23.6375
lfoot -5.67764 7.63541
ltoes -11.5769
305
root 39.9866 17.4359 5.6287 119.462 -80.83 -109.942
lowerback -3.48874 2.61084 8.76975
upperback -3.09445 3.09741 4.25289
thorax -1.02258 1.3547 -0.411744
lowerneck -17.644 -5.85998 -8.6022
upperneck 10.5972 -6.72483 6.10051
head 6.60031 -3.10172 2.6145
rclavicle 1.67725e-014 5.40694e-014
rhumerus 2.89914 -2.51625 -86.5973
rradius 39.1813
rwrist -32.3695
rhand 9.88179 -35.8119
rfingers 7.12502
rthumb 35.0142 -62.3646
lclavicle 1.67725e-014 5.40694e-014
lhumerus -23.7826 8.68053 81.1551
lradius 32.7531
lwrist -10.2627
lhand -8.29825 28.6927
lfingers 7.12502
lthumb 17.6218 57.9141
rfemur -0.640422 2.64176 33.5198
rtibia 14.8301
rfoot -16.1853 -12.4755
rtoes 5.35592
lfemur -36.3072 1.07671 -6.12608
ltibia 22.674
lfoot -5.40453 7.71358
ltoes -11.4772
306
root 39.8941 17.4285 5.63241 119.84 -80.785 -110.307
lowerback -3.55556 2.68987 8.86031
upperback -3.16787 3.19661 4.18963
thorax -1.04686 1.39907 -0.521313
lowerneck -17.5545 -5.91523 -8.61066
upperneck 10.4281 -6.81038 6.17919
head 6.54077 -3.13848 2.63357
rclavicle -1.00635e-015 -5.88403e-014
rhumerus 4.77538 -2.09794 -86.5094
rradius 40.411
rwrist -32.6447
rhand 9.43624 -35.7943
rfingers 7.12502
rthumb 34.5914 -62.4448
lclavicle -1.00635e-015 -5.88403e-014
lhumerus -23.1717 7.83292 81.2576
lradius 33.4866
lwrist -9.80354
lhand -8.33463 28.6166
lfingers 7.12502
lthumb 17.5868 57.8411
rfemur -0.343195 2.66174 33.4786
rtibia 14.8808
rfoot -16.2411 -12.3465
rtoes 4.78384
lfemur -36.1738 0.864716 -5.95391
ltibia 21.7579
lfoot -5.14014 7.78595
ltoes -11.3826
307
root 39.799 17.4215 5.63701 120.159 -80.7488 -110.612
lowerback -3.62637 2.76547 8.95205
upperback -3.2456 3.29088 4.12338
thorax -1.07309 1.44065 -0.634538
lowerneck -17.4644 -5.97018 -8.61456
upperneck 10.2565 -6.8961 6.25614
head 6.48029 -3.17548 2.65143
rclavicle -1.85864e-014 1.74931e-014
rhumerus 6.68035 -1.77008 -86.405
rradius 41.6603
rwrist -32.8539
rhand 8.92032 -35.7507
rfingers 7.12502
rthumb 34.1016 -62.5119
lclavicle -1.85864e-014 1.74931e-014
lhumerus -22.5481 6.99352 81.3442
lradius 34.2369
lwrist -9.36271
lhand -8.38235 28.5424
lfingers 7.12502
lthumb 17.5409 57.7711
rfemur -0.0516426 2.68007 33.4279
rtibia 14.9514
rfoot -16.2848 -12.2222
rtoes 4.17697
lfemur -36.0286 0.646097 -5.79661
ltibia 20.8975
lfoot -4.88426 7.84768
ltoes -11.3059
308
root 39.7012 17.4151 5.64253 120.411 -80.7226 -110.848
lowerback -3.70458 2.83725 9.04529
upperback -3.32492 3.37908 4.05354
thorax -1.09662 1.47909 -0.752048
lowerneck -17.3802 -6.02532 -8.61668
upperneck 10.0846 -6.98243 6.33748
head 6.42099 -3.21242 2.67031
rclavicle 2.05742e-014 1.59028e-015
rhumerus 8.60733 -1.52516 -86.2909
rradius 42.9288
rwrist -33.0036
rhand 8.32904 -35.6685
rfingers 7.12502
rthumb 33.5398 -62.5533
lclavicle 2.05742e-014 1.59028e-015
lhumerus -21.9084 6.16483 81.4149
lradius 35.0025
lwrist -8.9398
lhand -8.4371 28.4656
lfingers 7.12502
lthumb 17.4882 57.699
rfemur 0.233631 2.69593 33.3674
rtibia 15.0428
rfoot -16.3139 -12.1037
rtoes 3.53413
lfemur -35.8727 0.422493 -5.6572
ltibia 20.0964
lfoot -4.63971 7.89634
ltoes -11.2412
309
root 39.6005 17.4094 5.64897 120.598 -80.7057 -111.019
lowerback -3.78216 2.90553 9.14019
upperback -3.41159 3.463 3.98029
thorax -1.12782 1.51473 -0.874202
lowerneck -17.2907 -6.08014 -8.61497
upperneck 9.91012 -7.0693 6.41862
head 6.3601 -3.24978 2.68864
rclavicle -1.09953e-015 -4.29375e-014
rhumerus 10.5389 -1.36165 -86.1739
rradius 44.2117
rwrist -33.0899
rhand 7.65562 -35.5468
rfingers 7.12502
rthumb 32.8995 -62.5681
lclavicle -1.09953e-015 -4.29375e-014
lhumerus -21.2653 5.34641 81.4689
lradius 35.7835
lwrist -8.53321
lhand -8.49963 28.3893
lfingers 7.12502
lthumb 17.428 57.628
rfemur 0.512429 2.70953 33.2982
rtibia 15.1585
rfoot -16.3274 -11.9909
rtoes 2.85575
lfemur -35.7041 0.19637 -5.53597
ltibia 19.3584
lfoot -4.41275 7.9308
ltoes -11.1648
310
root 39.4971 17.4044 5.65632 120.706 -80.6995 -111.111
lowerback -3.85877 2.96883 9.23515
upperback -3.50738 3.54088 3.90451
thorax -1.16908 1.54653 -0.999372
lowerneck -17.1935 -6.1339 -8.60993
upperneck 9.73458 -7.15571 6.49846
head 6.29757 -3.28724 2.70632
rclavicle 2.32205e-014 1.19271e-014
rhumerus 12.465 -1.27247 -86.0605
rradius 45.5067
rwrist -33.1187
rhand 6.90508 -35.3828
rfingers 7.12502
rthumb 32.1853 -62.5514
lclavicle 2.32205e-014 1.19271e-014
lhumerus -20.6244 4.54083 81.5072
lradius 36.5801
lwrist -8.14117
lhand -8.57143 28.32
lfingers 7.12502
lthumb 17.3589 57.5648
rfemur 0.782468 2.71914 33.2206
rtibia 15.3005
rfoot -16.3236 -11.8845
rtoes 2.14376
lfemur -35.5252 -0.0289938 -5.43743
ltibia 18.6835
lfoot -4.20207 7.94602
ltoes -11.0904
311
root 39.3908 17.4002 5.66458 120.731 -80.7054 -111.121
lowerback -3.93577 3.0272 9.32771
upperback -3.61039 3.61252 3.82671
thorax -1.21788 1.57457 -1.12565
lowerneck -17.09 -6.18725 -8.60465
upperneck 9.55692 -7.24233 6.58186
head 6.23365 -3.32486 2.72531
rclavicle 7.81744e-015 -1.27222e-014
rhumerus 14.378 -1.24847 -85.9522
rradius 46.8089
rwrist -33.0948
rhand 6.08422 -35.1707
rfingers 7.12502
rthumb 31.4036 -62.4945
lclavicle 7.81744e-015 -1.27222e-014
lhumerus -19.9848 3.7492 81.5327
lradius 37.3903
lwrist -7.76333
lhand -8.65293 28.2576
lfingers 7.12502
lthumb 17.2805 57.5093
rfemur 1.0425 2.72372 33.1335
rtibia 15.4718
rfoot -16.3026 -11.7848
rtoes 1.41206
lfemur -35.3354 -0.250235 -5.36527
ltibia 18.0713
lfoot -4.00572 7.9376
ltoes -11.0208
312
root 39.2817 17.3968 5.67373 120.675 -80.7231 -111.051
lowerback -4.01973 3.08076 9.41913
upperback -3.71464 3.67679 3.74631
thorax -1.26433 1.59881 -1.25387
lowerneck -16.9829 -6.24009 -8.59626
upperneck 9.37122 -7.32876 6.66602
head 6.16667 -3.36251 2.74428
rclavicle 9.38015e-016 -1.19271e-014
rhumerus 16.279 -1.2845 -85.8548
rradius 48.1162
rwrist -33.0309
rhand 5.19017 -34.9208
rfingers 7.12502
rthumb 30.5513 -62.4068
lclavicle 9.38015e-016 -1.19271e-014
lhumerus -19.3381 2.97496 81.5461
lradius 38.2098
lwrist -7.39982
lhand -8.74142 28.1976
lfingers 7.12502
lthumb 17.1953 57.4568
rfemur 1.29223 2.72167 33.0368
rtibia 15.675
rfoot -16.261 -11.6905
rtoes 0.654803
lfemur -35.1325 -0.465489 -5.32091
ltibia 17.5205
lfoot -3.82618 7.90372
ltoes -10.9455
313
root 39.1697 17.3944 5.68374 120.526 -80.7551 -110.892
lowerback -4.10806 3.12873 9.50758
upperback -3.81906 3.73305 3.66227
thorax -1.30893 1.61902 -1.3843
lowerneck -16.8847 -6.2938 -8.5829
upperneck 9.18366 -7.41636 6.75017
head 6.10062 -3.40061 2.76223
rclavicle -1.88411e-014 -7.95139e-015
rhumerus 18.1627 -1.37439 -85.772
rradius 49.422
rwrist -32.9266
rhand 4.23408 -34.6187
rfingers 7.12502
rthumb 29.6392 -62.2707
lclavicle -1.88411e-014 -7.95139e-015
lhumerus -18.6821 2.21801 81.5481
lradius 39.0368
lwrist -7.04942
lhand -8.83281 28.1344
lfingers 7.12502
lthumb 17.1074 57.4012
rfemur 1.52898 2.71083 32.929
rtibia 15.913
rfoot -16.1952 -11.6025
rtoes -0.127242
lfemur -34.918 -0.673339 -5.30874
ltibia 17.0308
lfoot -3.66194 7.84064
ltoes -10.864
